<svg xmlns="http://www.w3.org/2000/svg" viewBox="0 0 221.98 300.25">
  <defs>
    <style>
      .cls-1 {
        fill: #2e2e2e;
      }

      .cls-2 {
        fill: #d0e7ef;
      }

      .cls-3 {
        opacity: 0.1;
      }

      .cls-4 {
        fill: #ff8d8a;
      }

      .cls-5 {
        fill: #fb6362;
      }

      .cls-6 {
        fill: #f46766;
      }
    </style>
  </defs>
  <title>liver_couple</title>
  <g id="man">
    <g>
      <path class="cls-1" d="M245,187.26c-.06-21.68-.74-21.14-8.24-28.88-8.4-8.66-28.75-8-28.75-8H176s-20.35-.66-28.75,8c-7.51,7.74-8.18,7.2-8.24,28.88a.49.49,0,0,0,0,.12v69a10,10,0,0,0,20,0V193.79c0-2.62.33-13.25,4-15.83v90.42a12,12,0,0,0,.5,3.4v102.1a12,12,0,0,0,12,12h2a12,12,0,0,0,12-12v-93.5H196v93a12,12,0,0,0,12,12h2a12,12,0,0,0,12-12V178.94c2.73,3.63,3,12.49,3,14.85v62.59a10,10,0,0,0,20,0v-69S245,187.3,245,187.26Z" transform="translate(-139.01 -95.38)"/>
      <circle class="cls-1" cx="51.63" cy="23.5" r="23.5"/>
    </g>
  </g>
  <g id="woman">
    <g>
      <path class="cls-1" d="M360.6,253.62l-20.54-65.75h0l-1.53-3.66c-3.16-6.71-11.33-20.32-25.65-20.32H294v30.38h0V163.88H275.13c-14.31,0-22.48,13.61-25.64,20.32L248,187.86h0l-20.53,65.75A8.66,8.66,0,0,0,244,258.78l18.91-60.53h0c1.9-6.08,6.76-4,6.76-4L239.84,310s-3.83,6.83,9,6.83,19.59-1.5,19.63,4.5a1.87,1.87,0,0,0,0,.35v62a12,12,0,0,0,24,0v-67h5v67a12,12,0,0,0,24,0V317.35c3.05-1.16,8.78-.55,17.05-.55,12.83,0,9-6.83,9-6.83L318.38,196.66v-2.4s4.87-2.09,6.77,4h0l18.9,60.53a8.67,8.67,0,0,0,16.55-5.16Z" transform="translate(-139.01 -95.38)"/>
      <circle class="cls-1" cx="155" cy="35.25" r="23.5"/>
    </g>
  </g>
  <g id="liver">
    <g>
      <g>
        <circle class="cls-2" cx="43.46" cy="148.26" r="3.25"/>
        <path class="cls-3" d="M181.15,240.67a3.25,3.25,0,0,0,2.61,6" transform="translate(-139.01 -95.38)"/>
      </g>
      <path class="cls-4" d="M182,221.1s-4.56-.1-7.33,2.67-1.68,7.73-1.58,8.91a20,20,0,0,1-.6,7.43c-.39,1.29-.49,5.74.6,6.33a3.18,3.18,0,0,0,3.27,0,36.87,36.87,0,0,1,5.44-2.07c1.19-.2,6.63-2.18,8.71-5s2.45-3.89,2.5-5.62,1,1.75,1,1.75-.72.25,1.31.35a9.82,9.82,0,0,0,8.32-3.29,8,8,0,0,0,4.9-2.33c.94-1.24,1.51-2.75.69-4.25a10.64,10.64,0,0,0-6.39-4.31,18.92,18.92,0,0,0-7.37-.35C193.06,221.74,182,221.1,182,221.1Z" transform="translate(-139.01 -95.38)"/>
      <path class="cls-5" d="M177.35,246.06l-.9.38a3.17,3.17,0,0,1-3.26,0c-1.09-.59-1-5-.6-6.33a20.28,20.28,0,0,0,.6-7.43c-.1-1.18-1.19-6.14,1.58-8.91s7.33-2.67,7.33-2.67,2.07.12,4.62.23c0,0-6.29.76-8.12,3.93s-.44,7.52-.69,9.7-1.32,9.1-.94,10.1Z" transform="translate(-139.01 -95.38)"/>
      <path class="cls-6" d="M194.05,235.55s-.92-3.49-1-1.75l-.28-12.31a19.87,19.87,0,0,0,2.7-.12,16.79,16.79,0,0,1,3.74-.18s-2.83,0-4,7.16Z" transform="translate(-139.01 -95.38)"/>
      <path class="cls-2" d="M185.17,221.51c1.5.36,5.18,2.51,6.07,5.81a31.34,31.34,0,0,1,1.29,8.48c.07,1.16.86,1.62,1.35,1.52s.79-.86.5-1.85a15.53,15.53,0,0,1-.76-5.28c.13-2.21,1-5.91,1.75-6.93a5.63,5.63,0,0,1,4.19-2.14c.59,0,.36-1.65-.2-1.46s-5.44,1.46-7.92,1.23a65.58,65.58,0,0,1-8.91-1.23c-.53-.19-1.52,1.13-.46,1.52C182.49,221.31,184.93,221.45,185.17,221.51Z" transform="translate(-139.01 -95.38)"/>
      <path class="cls-3" d="M192.3,232.44a31.87,31.87,0,0,0-1.06-5.12c-.89-3.3-4.57-5.45-6.07-5.81-.24-.06-2.68-.2-3.1-.33-1.06-.39-.07-1.71.46-1.52a41.12,41.12,0,0,0,5.92.93s3.37,3.68,3.62,6.55S192.3,232.44,192.3,232.44Z" transform="translate(-139.01 -95.38)"/>
    </g>
  </g>
</svg>
